<svg xmlns="http://www.w3.org/2000/svg" fill="none" viewBox="0 0 266 62"><path d="M106.688 50.345l-8.442-31.424-8.442 31.424c-.469 2.01-2.278 3.417-4.422 3.417-2.144 0-3.953-1.407-4.422-3.35L70.24 13.025c-.067-.336-.134-.737-.134-1.072 0-1.943 1.608-3.551 3.551-3.551 1.675 0 3.015 1.139 3.417 2.68l8.71 33.5 9.179-33.701c.402-1.407 1.675-2.479 3.35-2.479 1.541 0 2.881 1.071 3.283 2.479l9.112 33.701 8.71-33.5c.402-1.541 1.742-2.68 3.417-2.68a3.53 3.53 0 013.551 3.551c0 .335-.067.736-.134 1.072l-10.653 37.387a4.544 4.544 0 01-4.422 3.35c-2.144 0-3.953-1.407-4.489-3.417zM134.492 49.875V12.288c0-2.278 1.273-3.552 3.618-3.552h23.718c1.608 0 3.015 1.34 3.015 3.016 0 1.607-1.407 2.881-3.015 2.881h-20.636v13.065h20.167c1.608 0 3.015 1.272 3.015 2.881 0 1.675-1.407 3.015-3.015 3.015h-20.167v13.938h20.636c1.608 0 3.015 1.272 3.015 2.881 0 1.675-1.407 3.015-3.015 3.015H138.11c-2.345-.001-3.618-1.274-3.618-3.553zM174.223 49.875V12.288c0-2.278 1.273-3.552 3.618-3.552h12.328c13.937 0 23.183 9.515 23.183 22.379 0 12.932-9.246 22.312-23.183 22.312h-12.328c-2.345 0-3.618-1.273-3.618-3.552zm15.946-2.344c10.318 0 16.281-7.371 16.281-16.416 0-9.18-5.762-16.482-16.281-16.482h-9.246v32.898h9.246zM243.434 8c13.333 0 22.512 9.85 22.512 23.115 0 13.265-9.179 23.115-22.512 23.115s-22.513-9.85-22.513-23.115C220.921 17.85 230.1 8 243.434 8zm0 5.963c-9.582 0-15.611 7.303-15.611 17.152 0 9.782 6.03 17.152 15.611 17.152 9.447 0 15.611-7.37 15.611-17.152 0-9.849-6.165-17.152-15.611-17.152z" fill="#002d54"/><path d="M2.145 25.367c-.698-.402-1.268-1.39-1.268-2.196V2.035C.877.223 2.161-.52 3.731.387L36.319 19.2c.698.404.698 1.062 0 1.464l-19.89 11.483c-.698.403-1.84.403-2.537 0l-11.747-6.78zm14.284 16.808c-.698.403-1.84.403-2.537 0L2.145 35.392c-.698-.404-1.268-.074-1.268.731v23.841c0 1.812 1.284 2.554 2.854 1.648L53.9 32.648c1.569-.907 1.569-2.39 0-3.296l-6.364-3.674c-.698-.402-1.84-.402-2.537 0L16.429 42.174z" fill="url(#paint0_linear)"/><defs><linearGradient id="paint0_linear" x1="-4.238" y1="57.915" x2="27.686" y2="16.68" gradientUnits="userSpaceOnUse"><stop stop-color="#0072ce"/><stop offset="1" stop-color="#2f94e7"/></linearGradient></defs></svg>